<?xml version="1.0" encoding="utf-8"?>
<!-- Generator: Adobe Illustrator 16.0.0, SVG Export Plug-In . SVG Version: 6.00 Build 0)  -->
<!DOCTYPE svg PUBLIC "-//W3C//DTD SVG 1.1//EN" "http://www.w3.org/Graphics/SVG/1.1/DTD/svg11.dtd">
<svg version="1.1" id="Layer_1" xmlns="http://www.w3.org/2000/svg" xmlns:xlink="http://www.w3.org/1999/xlink" x="0px" y="0px"
	 width="800.21px" height="295.962px" viewBox="0 252.019 800.21 295.962" enable-background="new 0 252.019 800.21 295.962"
	 xml:space="preserve">
<g>
	<g>
		<path fill="#004F6E" d="M218.563,286.418c0,18.878-15.312,34.399-34.399,34.399c-18.878,0-34.399-15.312-34.399-34.399
			c0-18.878,15.312-34.399,34.399-34.399C203.042,252.019,218.563,267.331,218.563,286.418z"/>
		<polygon fill="#004F6E" points="122.916,382.485 160.671,382.485 160.671,432.616 160.671,471.841 209.124,520.294 
			209.124,334.032 22.863,334.032 71.316,382.485 		"/>
		<polygon fill="#E63E30" points="99.213,494.704 48.453,494.704 48.453,443.314 48.453,405.349 0,356.896 0,543.157 
			186.261,543.157 137.808,494.704 		"/>
	</g>
	<g>
		<path fill="#58595B" d="M266.177,335.71c1.049-0.209,2.307-0.419,3.356-0.419c1.259,0,2.308-0.21,3.566-0.21s2.307,0,3.566,0.21
			c1.258,0,2.307,0.21,3.356,0.419v99.213c-1.049,0.21-2.307,0.42-3.356,0.42s-2.308,0.209-3.566,0.209s-2.517,0-3.566-0.209
			c-1.258,0-2.307-0.21-3.356-0.42V335.71z"/>
		<path fill="#58595B" d="M311.484,335.71c1.049-0.209,2.098-0.419,3.146-0.419c1.049,0,2.308-0.21,3.146-0.21
			c1.049,0,2.098,0,3.146,0.21c1.049,0,2.308,0.21,3.146,0.419l43.209,74.672V335.71c1.049-0.209,2.308-0.419,3.356-0.419
			c1.258,0,2.307-0.21,3.565-0.21c1.049,0,2.098,0,3.146,0.21c1.049,0,2.098,0.21,3.146,0.419v99.213
			c-1.049,0.21-2.098,0.42-3.146,0.42s-2.308,0.209-3.146,0.209c-1.049,0-2.098,0-3.146-0.209c-1.049,0-2.307-0.21-3.146-0.42
			l-43.42-74.252v74.252c-1.048,0.21-2.097,0.42-3.146,0.42s-2.308,0.209-3.356,0.209c-1.259,0-2.308,0-3.565-0.209
			c-1.049,0-2.098-0.21-3.146-0.42V335.71H311.484z"/>
		<path fill="#58595B" d="M409.858,419.821c2.937,1.049,6.293,2.098,9.438,2.937c3.356,0.84,7.342,1.259,12.166,1.259
			c7.551,0,13.215-1.468,16.99-4.614s5.663-7.342,5.663-12.585c0-2.518-0.419-4.825-1.259-6.713
			c-0.839-1.888-1.888-3.355-3.565-4.824c-1.468-1.258-3.565-2.517-5.873-3.565s-5.034-2.308-8.181-3.566l-7.971-3.146
			c-2.727-1.048-5.033-2.307-7.341-3.565c-2.308-1.259-4.195-2.937-5.663-4.825c-1.679-1.888-2.937-4.195-3.776-6.712
			c-0.839-2.517-1.468-5.454-1.468-9.02c0-8.39,2.937-14.893,8.6-19.717s13.634-7.131,24.122-7.131c4.404,0,8.6,0.419,12.585,1.048
			c3.985,0.839,7.551,1.678,10.487,2.727c-0.419,3.775-1.468,7.761-2.937,11.537c-2.517-0.839-5.453-1.678-8.6-2.517
			c-3.356-0.839-6.922-1.049-11.117-1.049c-5.873,0-10.277,1.258-13.424,3.566c-3.146,2.307-4.614,5.873-4.614,10.487
			c0,1.888,0.419,3.566,1.258,5.244c0.839,1.468,1.888,2.937,3.146,3.985c1.259,1.258,2.727,2.097,4.614,3.146
			c1.679,0.839,3.566,1.678,5.454,2.517l7.761,2.937c3.775,1.468,6.922,2.937,9.858,4.615s5.244,3.566,7.342,5.663
			c2.098,2.098,3.565,4.825,4.614,7.761s1.678,6.502,1.678,10.277c0,9.439-3.355,16.99-9.858,22.444
			c-6.922,5.453-16.15,8.18-27.897,8.18c-2.936,0-5.453,0-7.761-0.209c-2.307-0.21-4.404-0.42-6.502-0.84
			c-1.888-0.419-3.985-0.839-5.663-1.468c-1.888-0.629-3.775-1.259-5.664-1.888c0.21-2.098,0.63-4.195,1.259-6.293
			C408.391,424.017,409.229,421.919,409.858,419.821z"/>
		<path fill="#58595B" d="M494.599,335.71c1.049-0.209,2.308-0.419,3.356-0.419c1.259,0,2.307-0.21,3.565-0.21s2.308,0,3.566,0.21
			c1.258,0,2.307,0.21,3.355,0.419v99.213c-1.049,0.21-2.308,0.42-3.355,0.42c-1.049,0-2.308,0.209-3.566,0.209
			s-2.308,0-3.565-0.209c-1.259,0-2.308-0.21-3.356-0.42V335.71z"/>
		<path fill="#58595B" d="M597.378,383.534c1.049-0.209,2.308-0.419,3.356-0.419c1.258,0,2.307-0.209,3.565-0.209
			s2.308,0,3.566,0.209c1.258,0,2.307,0.21,3.355,0.419v48.453c-1.888,0.839-3.985,1.469-6.292,2.098
			c-2.308,0.629-4.615,1.049-7.132,1.468c-2.518,0.42-5.034,0.63-7.552,0.84c-2.517,0.209-4.824,0.209-7.131,0.209
			c-7.342,0-14.054-1.049-19.927-3.355c-5.873-2.308-10.907-5.663-14.893-10.068s-7.132-9.648-9.229-15.941
			c-2.098-6.292-3.146-13.424-3.146-21.185c0-7.971,1.049-15.102,3.356-21.395c2.308-6.502,5.454-11.956,9.438-16.36
			c4.195-4.615,9.02-7.971,14.684-10.488c5.663-2.517,11.956-3.566,18.877-3.566c5.244,0,9.859,0.419,13.635,1.049
			s7.341,1.678,10.487,2.937c-0.21,2.098-0.629,3.985-1.259,5.873c-0.629,1.888-1.258,3.775-2.098,5.664
			c-2.517-0.839-5.453-1.468-8.39-2.308c-2.937-0.629-6.712-1.048-11.327-1.048c-4.824,0-9.229,0.839-13.424,2.727
			c-3.985,1.678-7.342,4.405-10.277,7.761c-2.728,3.356-5.034,7.551-6.503,12.375c-1.468,4.824-2.308,10.488-2.308,16.99
			s0.84,12.166,2.518,16.99s3.985,8.81,6.922,11.956s6.502,5.454,10.487,7.132c3.985,1.468,8.391,2.308,13.425,2.308
			c2.937,0,5.453-0.21,7.761-0.42c2.307-0.42,4.194-0.629,5.663-1.259v-39.434H597.378z"/>
		<path fill="#58595B" d="M640.797,335.71c1.049-0.209,2.308-0.419,3.356-0.419c1.259,0,2.308-0.21,3.565-0.21
			c1.259,0,2.308,0,3.566,0.21c1.258,0,2.307,0.21,3.355,0.419v40.902h42.161V335.71c1.048-0.209,2.097-0.419,3.355-0.419
			s2.308-0.21,3.566-0.21c1.258,0,2.517,0,3.565,0.21c1.259,0,2.308,0.21,3.565,0.419v99.213c-1.048,0.21-2.097,0.42-3.355,0.42
			s-2.518,0.209-3.775,0.209c-1.259,0-2.518,0-3.566-0.209c-1.259,0-2.307-0.21-3.355-0.42v-45.936h-42.161v45.936
			c-1.049,0.21-2.307,0.42-3.355,0.42s-2.308,0.209-3.566,0.209c-1.258,0-2.517,0-3.565-0.209c-1.259,0-2.308-0.21-3.356-0.42
			V335.71L640.797,335.71z"/>
		<path fill="#58595B" d="M759.728,347.876h-25.8c-0.21-0.839-0.42-1.888-0.42-3.146c0-1.049-0.209-2.098-0.209-3.146
			s0-2.097,0.209-3.146c0-1.049,0.21-2.098,0.42-2.937h65.652c0.21,0.839,0.42,1.888,0.42,2.937s0.21,2.097,0.21,2.937
			c0,1.049,0,2.097-0.21,3.146c0,1.259-0.21,2.098-0.42,3.146h-25.799v87.047c-2.098,0.21-4.405,0.42-6.922,0.42
			c-2.518,0-5.034-0.21-7.132-0.42V347.876L759.728,347.876z"/>
	</g>
	<g>
		<path fill="#58595B" d="M266.177,465.338c0.629-0.209,1.678-0.209,2.517-0.209c1.049,0,2.098,0,3.566,0
			c1.258,0,2.517,0,3.565,0.209c1.049,0.21,2.098,0.63,2.937,1.049c0.839,0.42,1.468,1.049,1.888,1.888
			c0.419,0.839,0.629,1.888,0.629,3.146c0,0.63-0.209,1.469-0.419,2.098c-0.209,0.629-0.419,1.259-0.839,1.678
			c-0.419,0.42-0.839,0.839-1.258,1.259c-0.42,0.21-0.839,0.42-1.469,0.629c0.629,0,1.049,0.21,1.678,0.42s1.259,0.629,1.888,1.049
			c0.629,0.42,1.049,1.049,1.468,1.888s0.629,1.678,0.629,2.727c0,1.469-0.21,2.728-0.839,3.566
			c-0.629,1.049-1.259,1.678-2.308,2.307c-1.048,0.63-2.097,0.839-3.356,1.049c-1.258,0.21-2.517,0.21-3.985,0.21
			c-1.049,0-2.098,0-3.146,0c-1.049,0-2.098-0.21-3.566-0.42v-24.541H266.177z M272.68,475.406L272.68,475.406
			c0.629,0,1.049,0,1.678-0.21c0.42,0,0.839-0.209,1.259-0.629c0.419-0.21,0.629-0.629,0.839-1.049c0.21-0.42,0.21-1.049,0.21-1.678
			c0-0.63-0.21-1.259-0.419-1.679c-0.21-0.419-0.629-0.839-0.839-1.049c-0.419-0.209-0.839-0.419-1.258-0.419
			s-0.839-0.21-1.468-0.21s-1.259,0-1.678,0v6.503h1.678V475.406z M271.211,486.313L271.211,486.313c0.419,0,0.629,0,1.049,0
			s0.839,0,1.049,0c0.419,0,1.048,0,1.468-0.21c0.629,0,1.048-0.209,1.468-0.629c0.419-0.21,0.839-0.629,1.048-1.049
			c0.21-0.42,0.42-1.049,0.42-1.888c0-0.629-0.21-1.259-0.42-1.678c-0.209-0.42-0.629-0.84-1.048-1.049
			c-0.42-0.21-0.839-0.42-1.468-0.63c-0.629-0.209-1.259-0.209-1.888-0.209h-2.097v7.341H271.211z"/>
		<path fill="#58595B" d="M290.299,465.338c0.419,0,0.839-0.209,1.259-0.209c0.419,0,0.839,0,1.258,0s0.839,0,1.259,0
			c0.419,0,0.839,0,1.258,0.209v12.795c0,1.469,0,2.518,0.21,3.566c0,1.049,0.209,1.888,0.629,2.517
			c0.21,0.63,0.839,1.049,1.259,1.469c0.629,0.21,1.258,0.419,2.098,0.419c0.839,0,1.678-0.209,2.097-0.419
			c0.629-0.21,1.049-0.839,1.259-1.469c0.209-0.629,0.419-1.468,0.629-2.517c0-1.049,0.209-2.098,0.209-3.566v-12.795
			c0.419,0,0.839-0.209,1.259-0.209c0.419,0,0.839,0,1.258,0c0.42,0,0.839,0,1.259,0c0.419,0,0.839,0,1.259,0.209v13.844
			c0,1.679-0.21,3.146-0.42,4.615c-0.21,1.468-0.839,2.517-1.469,3.565c-0.629,1.049-1.678,1.678-2.936,2.308
			c-1.259,0.629-2.727,0.839-4.615,0.839s-3.356-0.21-4.614-0.839c-1.259-0.63-2.098-1.259-2.937-2.308
			c-0.629-1.049-1.259-2.098-1.468-3.565c-0.21-1.469-0.42-2.937-0.42-4.615v-13.844H290.299z"/>
		<path fill="#58595B" d="M321.343,478.553c-0.839-0.21-1.469-0.629-2.098-1.049c-0.63-0.42-1.049-0.839-1.679-1.259
			c-0.419-0.419-0.839-1.049-1.049-1.678c-0.209-0.629-0.419-1.469-0.419-2.517c0-1.259,0.21-2.098,0.629-3.146
			c0.42-0.839,1.049-1.679,1.679-2.308c0.629-0.629,1.678-1.049,2.727-1.468c1.049-0.21,2.098-0.42,3.565-0.42
			c1.259,0,2.308,0,3.356,0.21s2.098,0.419,3.146,0.839c-0.21,1.259-0.42,2.727-1.049,3.985c-0.42-0.21-0.63-0.21-1.049-0.42
			c-0.42-0.209-0.63-0.209-1.049-0.419c-0.42,0-0.839-0.21-1.259-0.21c-0.419,0-1.049,0-1.678,0c-0.42,0-0.839,0-1.259,0
			s-0.839,0.21-1.049,0.42c-0.419,0.209-0.629,0.419-0.839,0.839c-0.21,0.419-0.21,0.839-0.21,1.468c0,0.42,0,0.839,0.21,1.049
			s0.42,0.63,0.629,0.839c0.21,0.21,0.63,0.42,0.839,0.63c0.42,0.209,0.63,0.209,1.049,0.419l2.098,0.839
			c0.839,0.42,1.679,0.63,2.308,1.049c0.629,0.42,1.259,0.839,1.888,1.259c0.42,0.629,0.839,1.259,1.049,1.888
			c0.21,0.839,0.42,1.678,0.42,2.937s-0.21,2.308-0.63,3.146c-0.419,1.049-1.049,1.888-1.888,2.517
			c-0.839,0.63-1.888,1.259-2.937,1.679c-1.259,0.419-2.517,0.629-3.985,0.629c-0.839,0-1.468,0-2.098,0
			c-0.629,0-1.258-0.21-1.678-0.21c-0.629,0-1.049-0.209-1.678-0.419c-0.63-0.21-1.049-0.42-1.679-0.63
			c0-0.629,0.21-1.258,0.42-2.097c0.21-0.63,0.419-1.469,0.629-2.098c1.049,0.419,1.888,0.629,2.728,0.839
			c0.839,0.21,1.678,0.21,2.727,0.21c1.468,0,2.517-0.21,3.355-0.84c0.84-0.629,1.259-1.258,1.259-2.517c0-0.629,0-1.049-0.21-1.469
			c-0.209-0.419-0.419-0.629-0.839-0.839c-0.21-0.209-0.629-0.419-1.049-0.629c-0.419-0.21-0.839-0.42-1.258-0.42L321.343,478.553z"
			/>
		<path fill="#58595B" d="M339.172,465.338c0.839-0.209,1.678-0.209,2.517-0.209s1.678,0,2.517,0.209v24.751
			c-0.839,0.21-1.678,0.21-2.517,0.21s-1.678,0-2.517-0.21V465.338z"/>
		<path fill="#58595B" d="M352.596,465.338c0.629-0.209,1.469-0.209,2.098-0.209s1.468,0,2.098,0.209l9.648,15.731v-15.731
			c0.839-0.209,1.678-0.209,2.308-0.209c0.629,0,1.468,0,2.098,0.209v24.751c-0.84,0.21-1.469,0.21-2.098,0.21
			c-0.63,0-1.259,0-2.098-0.21l-9.648-15.731v15.731c-0.63,0.21-1.469,0.21-2.308,0.21s-1.469,0-2.098-0.21V465.338z"/>
		<path fill="#58595B" d="M378.814,465.338h14.054c0.21,0.63,0.21,1.469,0.21,2.098c0,0.839,0,1.469-0.21,2.098h-9.02v5.454h7.132
			c0.21,0.629,0.21,1.468,0.21,2.097c0,0.63,0,1.469-0.21,2.098h-7.132v6.503h9.229c0.21,0.629,0.21,1.468,0.21,2.098
			c0,0.839,0,1.468-0.21,2.097h-14.264V465.338L378.814,465.338z"/>
		<path fill="#58595B" d="M405.034,478.553c-0.839-0.21-1.469-0.629-2.098-1.049s-1.049-0.839-1.678-1.259
			c-0.42-0.419-0.839-1.049-1.049-1.678s-0.42-1.469-0.42-2.517c0-1.259,0.21-2.098,0.63-3.146c0.419-0.839,1.049-1.679,1.678-2.308
			s1.678-1.049,2.727-1.468c1.049-0.21,2.098-0.42,3.566-0.42c1.258,0,2.307,0,3.355,0.21s2.098,0.419,3.146,0.839
			c-0.21,1.259-0.42,2.727-1.049,3.985c-0.42-0.21-0.629-0.21-1.049-0.42c-0.42-0.209-0.629-0.209-1.049-0.419
			c-0.419,0-0.839-0.21-1.259-0.21c-0.419,0-1.049,0-1.678,0c-0.419,0-0.839,0-1.259,0c-0.419,0-0.839,0.21-1.049,0.42
			c-0.419,0.209-0.629,0.419-0.839,0.839c-0.21,0.419-0.21,0.839-0.21,1.468c0,0.42,0,0.839,0.21,1.049s0.42,0.63,0.63,0.839
			c0.209,0.21,0.629,0.42,0.839,0.63c0.419,0.209,0.629,0.209,1.049,0.419l2.098,0.839c0.839,0.42,1.678,0.63,2.307,1.049
			c0.63,0.42,1.259,0.839,1.888,1.259c0.42,0.629,0.84,1.259,1.049,1.888c0.21,0.839,0.42,1.678,0.42,2.937s-0.21,2.308-0.629,3.146
			c-0.42,1.049-1.049,1.888-1.889,2.517c-0.839,0.63-1.888,1.259-2.937,1.679c-1.258,0.419-2.517,0.629-3.985,0.629
			c-0.839,0-1.468,0-2.097,0c-0.63,0-1.259-0.21-1.679-0.21c-0.629,0-1.049-0.209-1.678-0.419s-1.049-0.42-1.678-0.63
			c0-0.629,0.209-1.258,0.419-2.097c0.21-0.63,0.42-1.469,0.63-2.098c1.049,0.419,1.888,0.629,2.727,0.839s1.678,0.21,2.727,0.21
			c1.469,0,2.518-0.21,3.356-0.84c0.839-0.629,1.258-1.258,1.258-2.517c0-0.629,0-1.049-0.209-1.469
			c-0.21-0.419-0.42-0.629-0.839-0.839c-0.21-0.209-0.63-0.419-1.049-0.629c-0.42-0.21-0.84-0.42-1.259-0.42L405.034,478.553z"/>
		<path fill="#58595B" d="M426.429,478.553c-0.839-0.21-1.468-0.629-2.098-1.049c-0.629-0.42-1.049-0.839-1.678-1.259
			c-0.419-0.419-0.839-1.049-1.049-1.678s-0.419-1.469-0.419-2.517c0-1.259,0.209-2.098,0.629-3.146
			c0.42-0.839,1.049-1.679,1.678-2.308c0.63-0.629,1.678-1.049,2.727-1.468c1.049-0.21,2.098-0.42,3.566-0.42
			c1.259,0,2.307,0,3.355,0.21s2.098,0.419,3.146,0.839c-0.209,1.259-0.419,2.727-1.049,3.985c-0.419-0.21-0.629-0.21-1.049-0.42
			c-0.419-0.209-0.629-0.209-1.049-0.419c-0.419,0-0.839-0.21-1.258-0.21c-0.42,0-1.049,0-1.679,0c-0.419,0-0.839,0-1.258,0
			c-0.42,0-0.839,0.21-1.049,0.42c-0.42,0.209-0.63,0.419-0.839,0.839c-0.21,0.419-0.21,0.839-0.21,1.468c0,0.42,0,0.839,0.21,1.049
			c0.209,0.21,0.419,0.63,0.629,0.839c0.21,0.21,0.629,0.42,0.839,0.63c0.42,0.209,0.63,0.209,1.049,0.419l2.098,0.839
			c0.839,0.42,1.678,0.63,2.308,1.049c0.629,0.42,1.258,0.839,1.888,1.259c0.419,0.629,0.839,1.259,1.049,1.888
			c0.209,0.839,0.419,1.678,0.419,2.937s-0.21,2.308-0.629,3.146c-0.42,1.049-1.049,1.888-1.888,2.517
			c-0.839,0.63-1.888,1.259-2.937,1.679c-1.259,0.419-2.518,0.629-3.985,0.629c-0.839,0-1.469,0-2.098,0
			c-0.63,0-1.259-0.21-1.678-0.21c-0.63,0-1.049-0.209-1.679-0.419c-0.629-0.21-1.049-0.42-1.678-0.63
			c0-0.629,0.21-1.258,0.42-2.097c0.209-0.63,0.419-1.469,0.629-2.098c1.049,0.419,1.888,0.629,2.727,0.839s1.678,0.21,2.727,0.21
			c1.469,0,2.518-0.21,3.356-0.84c0.839-0.629,1.259-1.258,1.259-2.517c0-0.629,0-1.049-0.21-1.469
			c-0.21-0.419-0.42-0.629-0.839-0.839c-0.21-0.209-0.629-0.419-1.049-0.629s-0.839-0.42-1.259-0.42L426.429,478.553z"/>
		<path fill="#58595B" d="M456.004,465.338c0.839-0.209,1.888-0.209,2.727-0.209c0.84,0,1.679,0,2.728,0.209l5.663,14.054
			l5.873-14.054c0.629-0.209,1.469-0.209,2.308-0.209s1.678,0,2.517,0.209l1.259,24.751c-0.839,0.21-1.678,0.21-2.517,0.21
			c-0.84,0-1.469,0-2.308-0.21l-0.63-16.78l-5.033,11.537c-0.42,0-0.63,0-1.049,0.209c-0.42,0-0.63,0-1.049,0
			c-0.21,0-0.63,0-0.839,0c-0.21,0-0.63,0-0.84-0.209l-4.614-11.747l-0.42,16.99c-0.629,0.21-1.468,0.21-2.097,0.21
			c-0.839,0-1.469,0-2.308-0.21L456.004,465.338z"/>
		<path fill="#58595B" d="M492.501,465.338c0.42,0,0.839-0.209,1.469-0.209c0.419,0,0.839,0,1.468,0c0.42,0,0.84,0,1.259,0
			c0.42,0,0.839,0,1.469,0.209l7.761,24.751c-0.839,0.21-1.888,0.21-2.727,0.21c-0.84,0-1.679,0-2.518-0.21l-1.469-5.034h-8.18
			l-1.469,5.034c-0.839,0.21-1.678,0.21-2.307,0.21c-0.84,0-1.679,0-2.518-0.21L492.501,465.338L492.501,465.338z M498.165,480.86
			L498.165,480.86l-2.937-10.278l-2.937,10.278H498.165z"/>
		<path fill="#58595B" d="M527.53,485.475c0.21,0.629,0.629,1.259,0.839,1.888s0.42,1.259,0.42,2.098
			c-1.259,0.419-2.308,0.629-3.146,0.839c-1.049,0.21-1.888,0.21-3.146,0.21c-1.888,0-3.565-0.42-5.034-0.839
			c-1.468-0.63-2.727-1.469-3.775-2.728c-1.049-1.048-1.678-2.517-2.308-3.985c-0.419-1.468-0.839-3.146-0.839-5.033
			c0-1.889,0.21-3.566,0.839-5.034c0.63-1.469,1.259-2.937,2.308-3.985s2.308-2.098,3.775-2.728
			c1.469-0.629,3.146-1.048,5.034-1.048c1.049,0,2.098,0,2.937,0.209c0.839,0.21,1.888,0.42,2.937,0.839
			c0,0.63-0.21,1.259-0.42,2.098c-0.209,0.63-0.419,1.259-0.839,1.888c-0.839-0.209-1.468-0.419-2.098-0.629
			c-0.629-0.21-1.258-0.21-2.097-0.21c-2.098,0-3.985,0.63-5.034,2.098c-1.259,1.469-1.679,3.566-1.679,6.293
			c0,5.663,2.308,8.39,7.132,8.39c0.839,0,1.678,0,2.308-0.209C526.062,485.895,526.691,485.685,527.53,485.475z"/>
		<path fill="#58595B" d="M535.92,465.338c0.84-0.209,1.679-0.209,2.518-0.209s1.678,0,2.517,0.209v9.649h8.181v-9.649
			c0.839-0.209,1.678-0.209,2.518-0.209c0.839,0,1.678,0,2.517,0.209v24.751c-0.839,0.21-1.678,0.21-2.517,0.21
			c-0.84,0-1.679,0-2.518-0.21v-10.697h-8.181v10.697c-0.839,0.21-1.678,0.21-2.517,0.21s-1.678,0-2.518-0.21V465.338
			L535.92,465.338z"/>
		<path fill="#58595B" d="M562.559,465.338c0.84-0.209,1.679-0.209,2.518-0.209s1.678,0,2.517,0.209v24.751
			c-0.839,0.21-1.678,0.21-2.517,0.21s-1.678,0-2.518-0.21V465.338z"/>
		<path fill="#58595B" d="M575.773,465.338c0.629-0.209,1.469-0.209,2.098-0.209s1.468,0,2.098,0.209l9.648,15.731v-15.731
			c0.839-0.209,1.678-0.209,2.308-0.209c0.629,0,1.468,0,2.098,0.209v24.751c-0.63,0.21-1.469,0.21-2.098,0.21
			c-0.63,0-1.259,0-2.098-0.21l-9.648-15.731v15.731c-0.63,0.21-1.469,0.21-2.308,0.21s-1.469,0-2.098-0.21V465.338z"/>
		<path fill="#58595B" d="M602.202,465.338h14.054c0.21,0.63,0.21,1.469,0.21,2.098c0,0.839,0,1.469-0.21,2.098h-9.02v5.454h7.132
			c0.21,0.629,0.21,1.468,0.21,2.097c0,0.63,0,1.469-0.21,2.098h-7.132v6.503h9.229c0.21,0.629,0.21,1.468,0.21,2.098
			c0,0.839,0,1.468-0.21,2.097h-14.264V465.338L602.202,465.338z"/>
		<path fill="#58595B" d="M628.422,478.553c-0.839-0.21-1.469-0.629-2.098-1.049s-1.049-0.839-1.678-1.259
			c-0.42-0.419-0.84-1.049-1.049-1.678c-0.21-0.629-0.42-1.469-0.42-2.517c0-1.259,0.21-2.098,0.629-3.146
			c0.42-0.839,1.049-1.679,1.679-2.308c0.629-0.629,1.678-1.049,2.727-1.468c1.049-0.21,2.098-0.42,3.565-0.42
			c1.259,0,2.308,0,3.356,0.21s2.098,0.419,3.146,0.839c-0.21,1.259-0.42,2.727-1.049,3.985c-0.42-0.21-0.63-0.21-1.049-0.42
			c-0.42-0.209-0.63-0.209-1.049-0.419c-0.42,0-0.839-0.21-1.259-0.21c-0.419,0-1.049,0-1.678,0c-0.42,0-0.839,0-1.259,0
			c-0.419,0-0.839,0.21-1.049,0.42c-0.419,0.209-0.629,0.419-0.839,0.839c-0.21,0.419-0.21,0.839-0.21,1.468
			c0,0.42,0,0.839,0.21,1.049s0.42,0.63,0.629,0.839c0.21,0.21,0.63,0.42,0.84,0.63c0.419,0.209,0.629,0.209,1.049,0.419
			l2.097,0.839c0.839,0.42,1.679,0.63,2.308,1.049c0.629,0.42,1.259,0.839,1.888,1.259c0.42,0.629,0.839,1.259,1.049,1.888
			c0.21,0.839,0.42,1.678,0.42,2.937s-0.21,2.308-0.63,3.146c-0.419,1.049-1.049,1.888-1.888,2.517
			c-0.839,0.63-1.888,1.259-2.937,1.679c-1.258,0.419-2.517,0.629-3.985,0.629c-0.839,0-1.468,0-2.098,0
			c-0.629,0-1.258-0.21-1.678-0.21c-0.629,0-1.049-0.209-1.678-0.419c-0.63-0.21-1.049-0.42-1.678-0.63
			c0-0.629,0.209-1.258,0.419-2.097c0.21-0.63,0.42-1.469,0.629-2.098c1.049,0.419,1.889,0.629,2.728,0.839s1.678,0.21,2.727,0.21
			c1.468,0,2.517-0.21,3.356-0.84c0.839-0.629,1.258-1.258,1.258-2.517c0-0.629,0-1.049-0.209-1.469
			c-0.21-0.419-0.42-0.629-0.84-0.839c-0.209-0.209-0.629-0.419-1.049-0.629c-0.419-0.21-0.839-0.42-1.258-0.42L628.422,478.553z"/>
		<path fill="#58595B" d="M657.158,465.338c1.049,0,2.098-0.209,3.146-0.209c1.049,0,2.098,0,3.356,0
			c1.049,0,2.308,0.209,3.565,0.419c1.259,0.21,2.308,0.629,3.146,1.259c1.049,0.629,1.679,1.468,2.308,2.727
			c0.629,1.049,0.839,2.518,0.839,4.405s-0.21,3.146-0.839,4.404c-0.629,1.049-1.259,1.888-2.308,2.727
			c-0.839,0.63-1.888,1.049-3.146,1.259c-1.258,0.21-2.307,0.42-3.355,0.42c-0.21,0-0.63,0-0.839,0c-0.21,0-0.42,0-0.839,0v7.971
			c-0.42,0-0.84,0.209-1.259,0.209c-0.42,0-0.839,0-1.259,0c-0.419,0-0.839,0-1.259,0c-0.419,0-0.839,0-1.258-0.209V465.338
			L657.158,465.338z M662.192,477.924L662.192,477.924c0.209,0,0.629,0,0.839,0c0.209,0,0.629,0,0.839,0c0.629,0,1.049,0,1.678-0.21
			s1.049-0.42,1.469-0.63c0.419-0.419,0.839-0.839,1.049-1.258c0.209-0.63,0.419-1.259,0.419-2.098s-0.21-1.469-0.419-2.098
			c-0.21-0.629-0.63-1.049-1.049-1.469c-0.42-0.419-0.839-0.629-1.469-0.839c-0.629-0.21-1.049-0.21-1.678-0.21
			c-0.21,0-0.42,0-0.63,0c-0.209,0-0.629,0-0.839,0v8.811H662.192z"/>
		<path fill="#58595B" d="M678.553,465.338c0.42,0,0.839,0,1.259-0.209c0.419,0,1.049,0,1.258,0c0.84,0,1.888,0,2.728,0.209
			l5.453,19.508l5.454-19.508c0.419,0,0.839-0.209,1.258-0.209c0.42,0,0.839,0,1.259,0s0.839,0,1.259,0c0.419,0,0.839,0,1.259,0.209
			l-7.971,24.751c-0.42,0-1.049,0.21-1.469,0.21c-0.419,0-0.839,0-1.468,0c-0.42,0-0.84,0-1.259,0c-0.42,0-0.839,0-1.469-0.21
			L678.553,465.338z"/>
		<path fill="#58595B" d="M711.064,469.533h-6.083c-0.21-0.629-0.21-1.468-0.21-2.098c0-0.629,0-1.468,0.21-2.098h17.41
			c0.209,0.63,0.209,1.469,0.209,2.098c0,0.839,0,1.469-0.209,2.098h-6.083v20.346c-0.42,0-0.839,0-1.259,0.21
			c-0.42,0-0.839,0-1.259,0c-0.419,0-0.839,0-1.258,0c-0.42,0-0.84,0-1.259-0.21v-20.346H711.064z"/>
		<path fill="#58595B" d="M740.221,465.338c0.839-0.209,1.678-0.209,2.517-0.209s1.678,0,2.517,0.209v20.347h8.601
			c0,0.419,0.21,0.839,0.21,1.049c0,0.419,0,0.629,0,1.049c0,0.419,0,0.629,0,1.049c0,0.419,0,0.629-0.21,1.048H740.43v-24.541
			H740.221z"/>
		<path fill="#58595B" d="M762.034,469.533h-6.082c-0.21-0.629-0.21-1.468-0.21-2.098c0-0.629,0-1.468,0.21-2.098h17.409
			c0.21,0.63,0.21,1.469,0.21,2.098c0,0.839,0,1.469-0.21,2.098h-6.083v20.346c-0.419,0-0.839,0-1.259,0.21
			c-0.419,0-0.839,0-1.258,0c-0.42,0-0.84,0-1.259,0c-0.42,0-0.839,0-1.259-0.21v-20.346H762.034z"/>
		<path fill="#58595B" d="M780.283,465.338c1.049-0.209,1.888-0.209,2.937-0.209s2.308-0.21,3.565-0.21
			c4.405,0,7.552,1.049,9.858,3.146c2.308,2.097,3.356,5.453,3.356,9.648c0,4.404-1.049,7.551-3.356,9.648
			c-2.307,2.098-5.663,3.146-10.277,3.146c-1.259,0-2.308,0-3.146-0.21c-1.049,0-1.888-0.21-2.937-0.21V465.338L780.283,465.338z
			 M785.317,486.104L785.317,486.104c0.21,0,0.419,0,0.839,0s0.629,0,1.259,0c1.049,0,2.098-0.209,2.937-0.419
			s1.678-0.63,2.307-1.259c0.63-0.629,1.259-1.469,1.679-2.517c0.419-1.049,0.629-2.518,0.629-4.195c0-1.679-0.21-2.937-0.629-4.195
			c-0.42-1.049-0.839-1.888-1.679-2.517c-0.629-0.63-1.468-1.049-2.307-1.259s-1.679-0.42-2.727-0.42c-0.42,0-0.63,0-1.049,0
			c-0.42,0-0.84,0-1.049,0v16.78H785.317z"/>
	</g>
	<g>
		<path fill="#004F6E" d="M421.604,520.923h-2.517c0-0.21,0-0.21,0-0.42c0-0.209,0-0.419,0-0.629s0-0.419,0-0.629s0-0.42,0-0.42
			h5.034v19.927c-0.21,0-0.42,0-0.63,0s-0.419,0-0.629,0s-0.42,0-0.629,0c-0.21,0-0.42,0-0.63,0V520.923L421.604,520.923z
			 M420.346,514.001L420.346,514.001c0-0.21,0-0.629,0-0.839c0-0.42,0-0.629,0-0.839s0-0.42,0-0.839c0-0.21,0-0.63,0-0.84
			c0.21,0,0.42,0,0.84,0c0.419,0,0.629,0,0.839,0s0.419,0,0.839,0c0.21,0,0.629,0,0.839,0c0,0.21,0,0.42,0,0.84
			c0,0.419,0,0.629,0,0.839s0,0.419,0,0.839c0,0.419,0,0.629,0,0.839c-0.21,0-0.42,0-0.839,0c-0.21,0-0.63,0-0.839,0
			c-0.21,0-0.42,0-0.839,0C420.766,514.001,420.556,514.001,420.346,514.001z"/>
		<path fill="#004F6E" d="M432.932,518.825c0.209,0,0.419,0,0.629,0s0.42,0,0.629,0c0.21,0,0.42,0,0.63,0s0.419,0,0.629,0
			c0,0.42,0,1.049,0.21,1.678c0,0.63,0,1.259,0,1.889c0.21-0.42,0.629-0.84,1.049-1.469c0.419-0.42,0.839-0.839,1.468-1.259
			c0.63-0.419,1.259-0.629,1.888-1.049c0.63-0.209,1.469-0.419,2.308-0.419c2.308,0,3.985,0.629,5.034,2.098
			c1.049,1.468,1.469,3.355,1.469,5.663v12.585c-0.21,0-0.42,0-0.63,0s-0.419,0-0.629,0s-0.42,0-0.63,0c-0.209,0-0.419,0-0.629,0
			v-11.746c0-2.308-0.42-3.775-1.049-4.824s-1.678-1.469-3.146-1.469c-0.839,0-1.678,0.21-2.517,0.63
			c-0.839,0.419-1.469,0.839-2.098,1.678c-0.629,0.629-1.049,1.469-1.468,2.518c-0.42,1.049-0.42,2.097-0.42,3.565v9.858
			c-0.21,0-0.42,0-0.629,0c-0.21,0-0.42,0-0.63,0s-0.419,0-0.629,0s-0.42,0-0.63,0v-19.927H432.932z"/>
		<path fill="#004F6E" d="M456.634,536.025c0.629,0.21,1.258,0.419,2.307,0.629c0.839,0.21,1.679,0.21,2.518,0.21
			c1.468,0,2.727-0.42,3.775-1.049c0.839-0.629,1.468-1.469,1.468-2.517c0-0.63-0.209-1.259-0.419-1.679
			c-0.21-0.419-0.63-0.839-1.049-1.259c-0.42-0.209-1.049-0.629-1.469-0.839c-0.629-0.209-1.258-0.419-1.678-0.629
			c-0.629-0.21-1.259-0.42-1.888-0.629c-0.629-0.21-1.259-0.63-1.678-1.049c-0.42-0.42-0.839-0.839-1.259-1.469
			c-0.21-0.629-0.42-1.259-0.42-2.098c0-1.678,0.63-2.937,1.679-3.775c1.258-1.049,2.937-1.468,5.453-1.468
			c1.049,0,2.098,0,2.937,0.209c1.049,0.21,1.679,0.42,2.308,0.63c-0.21,0.839-0.21,1.468-0.629,2.307
			c-0.63-0.209-1.259-0.419-2.098-0.629s-1.679-0.21-2.728-0.21c-1.678,0-2.727,0.21-3.355,0.839
			c-0.63,0.63-1.049,1.259-1.049,2.308c0,0.42,0.21,0.839,0.419,1.259c0.21,0.419,0.42,0.629,0.84,0.839
			c0.419,0.21,0.839,0.42,1.258,0.629c0.42,0.21,1.049,0.42,1.469,0.42c0.629,0.21,1.468,0.419,2.098,0.839
			c0.629,0.21,1.468,0.629,1.888,1.049c0.629,0.419,1.049,1.049,1.468,1.678c0.42,0.63,0.63,1.469,0.63,2.518
			c0,0.839-0.21,1.888-0.63,2.517c-0.419,0.839-0.839,1.469-1.678,1.888c-0.629,0.63-1.469,0.839-2.517,1.259
			c-0.84,0.21-1.888,0.42-3.146,0.42s-2.308,0-3.356-0.21s-1.678-0.42-2.308-0.63C456.214,537.493,456.424,536.864,456.634,536.025z
			"/>
		<path fill="#004F6E" d="M476.77,518.825c0.21,0,0.42,0,0.63,0c0.209,0,0.419,0,0.629,0s0.42,0,0.629,0c0.21,0,0.42,0,0.63,0
			l0.21,2.727c0.629-0.839,1.258-1.678,2.307-2.307c1.049-0.63,2.308-1.049,3.985-1.049c1.259,0,2.308,0.21,3.356,0.629
			c1.049,0.42,1.888,1.049,2.517,1.678c0.63,0.84,1.259,1.889,1.678,3.146c0.42,1.259,0.63,2.728,0.63,4.405s-0.21,3.355-0.63,4.614
			c-0.419,1.469-1.048,2.518-2.097,3.566c-0.839,1.048-2.098,1.678-3.356,2.097c-1.259,0.42-2.727,0.84-4.614,0.84
			c-0.63,0-1.259,0-2.098-0.21c-0.63-0.21-1.469-0.21-1.888-0.42v9.439c-0.21,0-0.42,0-0.63,0c-0.209,0-0.419,0-0.629,0
			s-0.419,0-0.629,0s-0.42,0-0.63,0V518.825L476.77,518.825z M479.496,536.235L479.496,536.235c0.63,0.209,1.259,0.419,1.889,0.629
			c0.629,0.21,1.468,0.21,2.517,0.21s1.888-0.21,2.937-0.42c0.839-0.419,1.678-0.839,2.308-1.468
			c0.629-0.63,1.259-1.679,1.678-2.728c0.42-1.049,0.629-2.307,0.629-3.985c0-2.307-0.419-4.194-1.258-5.663
			c-0.839-1.259-2.308-2.098-4.405-2.098c-0.629,0-1.259,0.21-2.098,0.21c-0.629,0.21-1.468,0.629-2.098,1.049
			c-0.629,0.42-1.049,1.259-1.468,1.888c-0.42,0.839-0.63,1.888-0.63,3.146V536.235z"/>
		<path fill="#004F6E" d="M502.989,520.923h-2.518c0-0.21,0-0.21,0-0.42c0-0.209,0-0.419,0-0.629s0-0.419,0-0.629s0-0.42,0-0.42
			h5.034v19.927c-0.21,0-0.419,0-0.629,0s-0.42,0-0.63,0c-0.209,0-0.419,0-0.629,0s-0.419,0-0.629,0V520.923L502.989,520.923z
			 M501.73,514.001L501.73,514.001c0-0.21,0-0.629,0-0.839c0-0.42,0-0.629,0-0.839s0-0.42,0-0.839c0-0.21,0-0.63,0-0.84
			c0.21,0,0.42,0,0.839,0c0.42,0,0.63,0,0.839,0c0.21,0,0.42,0,0.839,0c0.21,0,0.63,0,0.839,0c0,0.21,0,0.42,0,0.84
			c0,0.419,0,0.629,0,0.839s0,0.419,0,0.839c0,0.419,0,0.629,0,0.839c-0.209,0-0.419,0-0.839,0c-0.209,0-0.629,0-0.839,0
			c-0.209,0-0.419,0-0.839,0C502.359,514.001,501.94,514.001,501.73,514.001z"/>
		<path fill="#004F6E" d="M514.525,518.825c0.21,0,0.42,0,0.629,0c0.21,0,0.42,0,0.63,0s0.419,0,0.629,0s0.42,0,0.63,0
			c0,0.42,0,1.049,0.209,1.678c0,0.63,0,1.259,0,1.679c0.42-1.049,1.259-1.679,2.098-2.518c0.839-0.629,2.098-1.049,3.775-1.049
			c0.21,0,0.21,0,0.42,0s0.21,0,0.42,0c0,0.42,0.209,0.84,0.209,1.259c0,0.42,0,0.839-0.209,1.259c-0.21,0-0.42,0-0.42,0
			c-0.21,0-0.21,0-0.42,0c-1.678,0-3.146,0.629-4.194,1.678s-1.679,2.937-1.679,5.663v10.278c-0.209,0-0.419,0-0.629,0
			s-0.42,0-0.629,0c-0.21,0-0.42,0-0.63,0s-0.419,0-0.629,0v-19.927H514.525z"/>
		<path fill="#004F6E" d="M531.096,529.104c0,2.727,0.63,4.614,1.888,5.873c1.259,1.259,3.146,1.888,5.454,1.888
			c1.049,0,1.888,0,2.727-0.21s1.678-0.419,2.518-0.629c0.209,0.21,0.209,0.629,0.209,1.049c0,0.419,0.21,0.839,0.21,1.049
			c-0.839,0.419-1.678,0.629-2.727,0.839s-2.098,0.21-3.356,0.21c-1.678,0-3.146-0.21-4.404-0.84
			c-1.259-0.419-2.308-1.258-3.146-2.097c-0.839-0.84-1.469-1.889-1.678-3.356c-0.42-1.259-0.63-2.727-0.63-4.195
			c0-1.468,0.21-2.727,0.63-4.195c0.419-1.258,0.839-2.307,1.678-3.355c0.629-1.049,1.678-1.678,2.727-2.308
			c1.049-0.629,2.518-0.839,3.985-0.839c1.259,0,2.518,0.21,3.565,0.629c1.049,0.42,1.889,1.049,2.518,1.888
			c0.629,0.84,1.259,1.679,1.469,2.937c0.419,1.049,0.629,2.308,0.629,3.566c0,0.21,0,0.629,0,0.839c0,0.42,0,0.629,0,0.839h-14.264
			V529.104z M542.842,527.006L542.842,527.006c0-0.839,0-1.678-0.209-2.308c-0.21-0.839-0.63-1.468-1.049-2.098
			c-0.42-0.629-1.049-1.049-1.679-1.468c-0.629-0.42-1.468-0.63-2.517-0.63c-1.888,0-3.146,0.63-4.195,1.679
			s-1.678,2.727-1.888,4.824H542.842z"/>
		<path fill="#004F6E" d="M564.656,510.016c0.21,0,0.42,0,0.63,0c0.209,0,0.419,0,0.629,0s0.42,0,0.629,0c0.21,0,0.42,0,0.63,0
			v24.122c0,0.629,0,1.258,0.209,1.678c0.21,0.42,0.42,0.629,0.63,0.839s0.419,0.21,0.839,0.21c0.21,0,0.629,0,0.839,0
			s0.629,0,0.839,0s0.63,0,0.839-0.21c0.21,0.21,0.21,0.629,0.21,1.049s0,0.629,0.21,1.049c-0.42,0.21-0.839,0.21-1.259,0.21
			c-0.419,0-0.839,0-1.259,0c-0.629,0-1.048,0-1.678-0.21c-0.629-0.21-1.049-0.42-1.468-0.629c-0.42-0.42-0.84-0.84-1.049-1.259
			c-0.21-0.63-0.42-1.259-0.42-2.308V510.016L564.656,510.016z"/>
		<path fill="#004F6E" d="M578.71,520.923h-2.517c0-0.21,0-0.21,0-0.42c0-0.209,0-0.419,0-0.629s0-0.419,0-0.629s0-0.42,0-0.42
			h5.033v19.927c-0.209,0-0.419,0-0.629,0s-0.42,0-0.629,0c-0.21,0-0.42,0-0.63,0c-0.209,0-0.419,0-0.629,0V520.923L578.71,520.923z
			 M577.451,514.001L577.451,514.001c0-0.21,0-0.629,0-0.839c0-0.42,0-0.629,0-0.839s0-0.42,0-0.839c0-0.21,0-0.63,0-0.84
			c0.21,0,0.42,0,0.839,0c0.42,0,0.63,0,0.84,0c0.209,0,0.419,0,0.839,0c0.209,0,0.629,0,0.839,0c0,0.21,0,0.42,0,0.84
			c0,0.419,0,0.629,0,0.839s0,0.419,0,0.839c0,0.419,0,0.629,0,0.839c-0.21,0-0.42,0-0.839,0c-0.21,0-0.63,0-0.839,0
			c-0.21,0-0.42,0-0.84,0C578.081,514.001,577.661,514.001,577.451,514.001z"/>
		<path fill="#004F6E" d="M587.729,518.825c0.21,0,0.42,0,0.629,0c0.21,0,0.63,0,0.839,0c0.21,0,0.42,0,0.84,0
			c0.209,0,0.629,0,0.629,0l6.293,17.2l6.502-17.2c0.21,0,0.42,0,0.629,0c0.21,0,0.42,0,0.63,0c0.209,0,0.419,0,0.629,0
			s0.42,0,0.629,0l-7.971,19.927c-0.419,0-0.839,0.21-1.258,0.21c-0.42,0-0.839,0-1.259-0.21L587.729,518.825z"/>
		<path fill="#004F6E" d="M613.319,529.104c0,2.727,0.629,4.614,1.888,5.873s3.146,1.888,5.454,1.888c1.048,0,1.888,0,2.727-0.21
			s1.678-0.419,2.517-0.629c0.21,0.21,0.21,0.629,0.42,1.049c0,0.419,0.21,0.839,0.21,1.049c-0.839,0.419-1.679,0.629-2.728,0.839
			s-2.097,0.21-3.355,0.21c-1.678,0-3.146-0.21-4.405-0.84c-1.258-0.419-2.307-1.258-3.146-2.097
			c-0.839-0.84-1.468-1.889-1.678-3.356c-0.419-1.259-0.629-2.727-0.629-4.195c0-1.468,0.21-2.727,0.629-4.195
			c0.42-1.258,0.839-2.307,1.678-3.355c0.63-1.049,1.679-1.678,2.728-2.308c1.049-0.629,2.517-0.839,3.985-0.839
			c1.258,0,2.517,0.21,3.565,0.629c1.049,0.42,1.888,1.049,2.518,1.888c0.629,0.84,1.258,1.679,1.468,2.937
			c0.42,1.049,0.629,2.308,0.629,3.566c0,0.21,0,0.629,0,0.839c0,0.42,0,0.629,0,0.839h-14.473V529.104z M625.065,527.006
			L625.065,527.006c0-0.839,0-1.678-0.21-2.308c-0.209-0.839-0.629-1.468-1.049-2.098c-0.419-0.629-1.049-1.049-1.678-1.468
			c-0.629-0.42-1.468-0.63-2.517-0.63c-1.888,0-3.146,0.63-4.195,1.679s-1.678,2.727-1.888,4.824H625.065z"/>
		<path fill="#004F6E" d="M634.714,536.025c0.63,0.21,1.259,0.419,2.308,0.629c0.839,0.21,1.888,0.21,2.518,0.21
			c1.468,0,2.727-0.42,3.775-1.049c0.839-0.629,1.468-1.469,1.468-2.517c0-0.63-0.21-1.259-0.419-1.679
			c-0.21-0.419-0.63-0.839-1.049-1.259c-0.42-0.209-1.049-0.629-1.469-0.839c-0.629-0.209-1.259-0.419-1.678-0.629
			c-0.629-0.21-1.259-0.42-1.888-0.629c-0.63-0.21-1.259-0.63-1.679-1.049c-0.419-0.42-0.839-0.839-1.258-1.469
			c-0.21-0.629-0.42-1.259-0.42-2.098c0-1.678,0.629-2.937,1.678-3.775c1.049-1.049,2.937-1.468,5.454-1.468
			c1.049,0,2.098,0,2.937,0.209c1.049,0.21,1.678,0.42,2.308,0.63c-0.21,0.839-0.21,1.468-0.63,2.307
			c-0.629-0.209-1.258-0.419-2.098-0.629c-0.839-0.21-1.678-0.21-2.727-0.21c-1.678,0-2.727,0.21-3.355,0.839
			c-0.63,0.63-1.049,1.259-1.049,2.308c0,0.42,0.209,0.839,0.419,1.259c0.21,0.419,0.42,0.629,0.839,0.839
			c0.42,0.21,0.84,0.42,1.259,0.629c0.42,0.21,1.049,0.42,1.469,0.42c0.629,0.21,1.468,0.419,2.097,0.839
			c0.63,0.21,1.469,0.629,1.889,1.049c0.629,0.419,1.049,1.049,1.468,1.678c0.42,0.63,0.63,1.469,0.63,2.518
			c0,0.839-0.21,1.888-0.63,2.517c-0.419,0.839-0.839,1.469-1.678,1.888c-0.629,0.63-1.469,0.839-2.518,1.259
			c-0.839,0.21-1.888,0.42-3.146,0.42c-1.259,0-2.308,0-3.356-0.21s-1.678-0.42-2.308-0.63
			C634.085,537.493,634.295,536.864,634.714,536.025z"/>
	</g>
	<rect x="266.177" y="528.055" fill="#58595B" width="125.642" height="2.098"/>
	<rect x="674.357" y="528.055" fill="#58595B" width="125.643" height="2.098"/>
</g>
</svg>
